<?xml version="1.0" encoding="utf-8"?>
<!-- Generator: Adobe Illustrator 21.0.2, SVG Export Plug-In . SVG Version: 6.00 Build 0)  -->
<svg version="1.0" id="Layer_1" xmlns="http://www.w3.org/2000/svg" xmlns:xlink="http://www.w3.org/1999/xlink" x="0px" y="0px"
	 viewBox="0 0 1366 768" style="enable-background:new 0 0 1366 768;" xml:space="preserve">
<style type="text/css">
	.st0{fill:#231F20;}
	.st1{font-family:'MoolBoran';}
	.st2{font-size:259.1955px;}
	.st3{fill:#F6921E;}
	.st4{fill:#603813;}
</style>
<text transform="matrix(1 0 0 1 53 316.3164)" class="st0 st1 st2">PETTERB</text>
<text transform="matrix(1 0 0 1 842.6992 316.3164)" class="st0 st1 st2">RG</text>
<text transform="matrix(1 0 0 1 539.2744 509.1553)" class="st0 st1 st2">APIAR   </text>
<text transform="matrix(1 0 0 1 1063.2744 509.1592)" class="st0 st1 st2">ES   </text>
<g>
	<path class="st3" d="M1022.7,566.3h10.8c0.3,0,0.6-0.3,0.6-0.6v-188c0-0.3-0.3-0.6-0.6-0.6h-10.8c-0.3,0-0.6,0.3-0.6,0.6v188
		C1022.1,566,1022.3,566.3,1022.7,566.3z"/>
	<g>
		<rect x="1001.8" y="393.9" class="st4" width="53.3" height="8.7"/>
		<rect x="1003.2" y="353.2" class="st4" width="53.3" height="8.7"/>
		<rect x="1002.4" y="366" class="st4" width="53.3" height="8.7"/>
		<path class="st3" d="M1039.9,336.2h-21.9c-10.5,0-19.2,7.9-20.6,18c21,0,42,0,63,0C1059.2,344.1,1050.4,336.2,1039.9,336.2z"/>
		<path class="st3" d="M1018.6,419.7h21.9c10.5,0,19.2-7.9,20.6-18c-21,0-42,0-63,0C999.4,411.8,1008.1,419.7,1018.6,419.7z"/>
		<rect x="1002.4" y="379.7" class="st4" width="53.3" height="8.7"/>
		<path class="st3" d="M1061.2,367.8h-63.3c-0.2,0-0.4-0.2-0.4-0.4v-6.9c0-0.2,0.2-0.4,0.4-0.4h63.3c0.2,0,0.4,0.2,0.4,0.4v6.9
			C1061.6,367.6,1061.4,367.8,1061.2,367.8z"/>
		<path class="st3" d="M1060.1,380.9h-63.3c-0.2,0-0.4-0.2-0.4-0.4v-6.9c0-0.2,0.2-0.4,0.4-0.4h63.3c0.2,0,0.4,0.2,0.4,0.4v6.9
			C1060.5,380.7,1060.3,380.9,1060.1,380.9z"/>
		<path class="st3" d="M1059.7,395.1h-63.3c-0.2,0-0.4-0.2-0.4-0.4v-6.9c0-0.2,0.2-0.4,0.4-0.4h63.3c0.2,0,0.4,0.2,0.4,0.4v6.9
			C1060.1,395,1059.9,395.1,1059.7,395.1z"/>
	</g>
	<path class="st3" d="M1015.1,550.1c-0.1,1.4-0.1,2.8-0.1,4.3c0,16,5.8,29,13.1,29c7.2,0,13.1-13,13.1-29c0-1.6-0.1-3.1-0.2-4.6
		C1032.3,548.7,1023.8,549.5,1015.1,550.1z"/>
</g>
<g>
	<path class="st3" d="M820.7,211.7h-93.1c-2.9,0-5.2-2.3-5.2-5.2v-1.9c0-2.9,2.3-5.2,5.2-5.2h93.1c2.9,0,5.2,2.3,5.2,5.2v1.9
		C825.9,209.4,823.6,211.7,820.7,211.7z"/>
	<path class="st3" d="M827.7,227.6h-107c-3.1,0-5.6-2.5-5.6-5.6v-2c0-3.1,2.5-5.6,5.6-5.6h107c3.1,0,5.6,2.5,5.6,5.6v2
		C833.3,225.1,830.8,227.6,827.7,227.6z"/>
	<path class="st3" d="M814.2,197.3h-80c-2.4,0-4.3-1.9-4.3-4.3v-1.6c0-2.4,1.9-4.3,4.3-4.3h80c2.4,0,4.3,1.9,4.3,4.3v1.6
		C818.5,195.4,816.6,197.3,814.2,197.3z"/>
	<path class="st3" d="M834.7,244.4H713.6c-3.3,0-6-2.7-6-6v-2.2c0-3.3,2.7-6,6-6h121.1c3.3,0,6,2.7,6,6v2.2
		C840.7,241.7,838,244.4,834.7,244.4z"/>
	<path class="st3" d="M837.4,261.4H710.9c-3.2,0-5.8-2.6-5.8-5.8v-2.1c0-3.2,2.6-5.8,5.8-5.8h126.5c3.2,0,5.8,2.6,5.8,5.8v2.1
		C843.3,258.8,840.6,261.4,837.4,261.4z"/>
	<path class="st3" d="M834.7,278.8H713.6c-3.3,0-6-2.7-6-6v-2.2c0-3.3,2.7-6,6-6h121.1c3.3,0,6,2.7,6,6v2.2
		C840.7,276.1,838,278.8,834.7,278.8z"/>
	<path class="st3" d="M827.7,295.4h-107c-3.1,0-5.6-2.5-5.6-5.6v-2c0-3.1,2.5-5.6,5.6-5.6h107c3.1,0,5.6,2.5,5.6,5.6v2
		C833.3,292.8,830.8,295.4,827.7,295.4z"/>
	<path class="st3" d="M820.7,310.1h-93.1c-2.9,0-5.2-2.3-5.2-5.2V303c0-2.9,2.3-5.2,5.2-5.2h93.1c2.9,0,5.2,2.3,5.2,5.2v1.9
		C825.9,307.7,823.6,310.1,820.7,310.1z"/>
	<path class="st3" d="M814.2,323.7h-80c-2.4,0-4.3-1.9-4.3-4.3v-1.6c0-2.4,1.9-4.3,4.3-4.3h80c2.4,0,4.3,1.9,4.3,4.3v1.6
		C818.5,321.8,816.6,323.7,814.2,323.7z"/>
	<path class="st3" d="M799.7,337h-51.1c-2.2,0-4-1.8-4-4v-2.2c0-2.2,1.8-4,4-4h51.1c2.2,0,4,1.8,4,4v2.2
		C803.7,335.2,801.9,337,799.7,337z"/>
	<path class="st3" d="M799.7,184.6h-51.1c-2.2,0-4-1.8-4-4v-2.2c0-2.2,1.8-4,4-4h51.1c2.2,0,4,1.8,4,4v2.2
		C803.7,182.8,801.9,184.6,799.7,184.6z"/>
</g>
</svg>
